#!OML:ASF E:\Style4\Style4.ASF
:FULLY-SPECIFIED
:DEGREES
1755
root -0.242023 17.7944 -1.80346 0.201997 -0.0409119 1.99423
lowerback 5.14066 2.35076 -0.135923
upperback 1.81675 3.12336 0.0678276
thorax -1.02224 1.5596 -0.0393678
lowerneck -0.982727 -5.50881 -6.17452
upperneck 5.63009 -7.40019 4.04752
head 2.39157 -3.7238 2.17964
rclavicle 4.35835e-014 7.95139e-016
rhumerus -1.04935 55.2252 -86.8109
rradius 62.483
rwrist 25.3796
rhand -27.1002 21.7201
rfingers 7.12502
rthumb -0.516861 -8.25905
lclavicle 4.35835e-014 7.95139e-016
lhumerus 22.2263 -62.7545 67.4956
lradius 82.0221
lwrist -7.80955
lhand -15.7759 27.143
lfingers 7.12502
lthumb 10.4163 56.865
rfemur -12.1811 0.234009 17.0324
rtibia 31.9076
rfoot -18.4446 -14.9336
rtoes -13.5152
lfemur -9.8038 -3.70385 -20.413
ltibia 28.8764
lfoot -18.8735 9.10049
ltoes -16.2431
1756
root -0.242813 17.796 -1.80553 0.236778 -0.0687087 2.02613
lowerback 5.12464 2.33699 -0.328303
upperback 1.83577 3.09727 0.192096
thorax -1.01081 1.54594 0.197673
lowerneck -0.9839 -5.49751 -6.29254
upperneck 5.53689 -7.37436 3.95918
head 2.36057 -3.71487 2.17302
rclavicle 2.70844e-014 -1.19271e-015
rhumerus -1.43705 54.8651 -86.734
rradius 62.6843
rwrist 24.848
rhand -26.4629 22.4035
rfingers 7.12502
rthumb 0.0986382 -7.57619
lclavicle 2.70844e-014 -1.19271e-015
lhumerus 20.6911 -62.2586 68.7303
lradius 82.3479
lwrist -7.73533
lhand -15.9189 26.6415
lfingers 7.12502
lthumb 10.2784 56.3703
rfemur -12.2175 0.269209 16.9988
rtibia 31.8088
rfoot -18.3736 -15.0421
rtoes -13.9603
lfemur -9.80307 -3.69515 -20.438
ltibia 28.7929
lfoot -18.8877 9.09533
ltoes -16.0016
1757
root -0.242328 17.7999 -1.80726 0.262293 -0.103882 2.05804
lowerback 5.16646 2.33387 -0.388957
upperback 1.82489 3.09029 0.218514
thorax -1.04986 1.5423 0.256727
lowerneck -0.962466 -5.50458 -6.31313
upperneck 5.45958 -7.38104 3.92619
head 2.33067 -3.71913 2.16671
rclavicle -3.57812e-014 9.93923e-015
rhumerus -2.01697 54.4633 -86.8718
rradius 62.9696
rwrist 24.2543
rhand -25.9798 22.444
rfingers 7.12502
rthumb 0.565263 -7.53499
lclavicle -3.57812e-014 9.93923e-015
lhumerus 19.0894 -61.8737 69.8728
lradius 82.8202
lwrist -7.47188
lhand -16.0031 26.3778
lfingers 7.12502
lthumb 10.1972 56.1107
rfemur -12.2004 0.2706 16.9612
rtibia 31.6903
rfoot -18.2854 -15.0193
rtoes -14.0403
lfemur -9.79374 -3.64764 -20.4699
ltibia 28.7154
lfoot -18.8579 9.05043
ltoes -15.503
1758
root -0.244065 17.8031 -1.80973 0.303495 -0.135987 2.05815
lowerback 5.18832 2.33972 -0.381997
upperback 1.82219 3.09811 0.205562
thorax -1.06378 1.54624 0.238072
lowerneck -1.02248 -5.5286 -6.2482
upperneck 5.44274 -7.40951 3.89504
head 2.33276 -3.73192 2.14236
rclavicle 2.68359e-015 1.19271e-015
rhumerus -2.62555 54.1218 -87.1064
rradius 63.2647
rwrist 23.9985
rhand -26.0698 21.8038
rfingers 7.12502
rthumb 0.478375 -8.1754
lclavicle 2.68359e-015 1.19271e-015
lhumerus 17.5954 -61.4933 70.8253
lradius 83.4088
lwrist -7.09242
lhand -15.9783 26.3448
lfingers 7.12502
lthumb 10.2211 56.0765
rfemur -12.2112 0.331247 16.9717
rtibia 31.5918
rfoot -18.246 -15.0354
rtoes -14.1438
lfemur -9.80054 -3.61125 -20.4547
ltibia 28.6465
lfoot -18.7865 9.03746
ltoes -15.3399
1759
root -0.246724 17.8065 -1.81164 0.325763 -0.14256 1.96195
lowerback 5.1603 2.32357 -0.33358
upperback 1.8645 3.07994 0.2681
thorax -1.00551 1.53702 0.278578
lowerneck -1.03733 -5.52719 -6.21904
upperneck 5.32371 -7.40281 3.85109
head 2.29181 -3.72809 2.12348
rclavicle 4.32357e-015 -1.74931e-014
rhumerus -3.19647 53.8387 -87.2061
rradius 63.587
rwrist 24.0092
rhand -26.4636 21.1324
rfingers 7.12502
rthumb 0.0979665 -8.8473
lclavicle 4.32357e-015 -1.74931e-014
lhumerus 16.0954 -60.9731 71.8574
lradius 84.0641
lwrist -6.44471
lhand -15.8746 26.2684
lfingers 7.12502
lthumb 10.3211 55.9951
rfemur -12.1786 0.395659 17.0999
rtibia 31.482
rfoot -18.1798 -15.1206
rtoes -14.376
lfemur -9.80419 -3.59829 -20.3299
ltibia 28.5931
lfoot -18.7639 9.05575
ltoes -15.7085
1760
root -0.24957 17.8085 -1.81627 0.311653 -0.154232 1.89776
lowerback 5.2795 2.31481 -0.344788
upperback 1.84793 3.0682 0.333578
thorax -1.09295 1.53104 0.346775
lowerneck -0.984057 -5.5348 -6.19153
upperneck 5.24509 -7.41162 3.78313
head 2.25174 -3.73343 2.09791
rclavicle -4.40805e-014 1.39149e-014
rhumerus -4.04308 53.3856 -87.4892
rradius 63.9807
rwrist 24.0024
rhand -26.6628 20.8067
rfingers 7.12502
rthumb -0.0944191 -9.17298
lclavicle -4.40805e-014 1.39149e-014
lhumerus 14.234 -60.3932 73.1742
lradius 84.8274
lwrist -5.70044
lhand -15.4462 26.117
lfingers 7.12502
lthumb 10.7344 55.8227
rfemur -12.132 0.435969 17.1931
rtibia 31.3917
rfoot -18.0809 -15.181
rtoes -14.588
lfemur -9.76396 -3.61583 -20.2471
ltibia 28.5195
lfoot -18.7572 9.0865
ltoes -15.8468
1761
root -0.250941 17.8123 -1.81662 0.346031 -0.210369 1.80184
lowerback 5.38515 2.29948 -0.307873
upperback 1.77749 3.05039 0.394576
thorax -1.22533 1.52222 0.383182
lowerneck -0.885748 -5.5351 -6.19275
upperneck 5.15233 -7.41271 3.72192
head 2.20026 -3.73569 2.08134
rclavicle -3.89121e-014 0
rhumerus -4.9622 52.8915 -87.8549
rradius 64.4505
rwrist 23.4359
rhand -26.2775 20.9536
rfingers 7.12502
rthumb 0.277706 -9.02595
lclavicle -3.89121e-014 0
lhumerus 12.0882 -59.7021 74.63
lradius 85.5559
lwrist -5.24979
lhand -14.9583 25.7529
lfingers 7.12502
lthumb 11.2049 55.4337
rfemur -12.1252 0.492979 17.3093
rtibia 31.3121
rfoot -18.0576 -15.1713
rtoes -14.428
lfemur -9.74512 -3.59876 -20.1297
ltibia 28.4305
lfoot -18.7407 9.04586
ltoes -15.7104
1762
root -0.250558 17.8181 -1.81475 0.435457 -0.341608 1.86626
lowerback 5.3462 2.31245 -0.410132
upperback 1.75176 3.0625 0.397331
thorax -1.23567 1.52827 0.443233
lowerneck -0.904415 -5.52057 -6.23738
upperneck 5.13366 -7.39264 3.75912
head 2.20043 -3.72553 2.10188
rclavicle -3.13086e-015 -8.74653e-015
rhumerus -5.83081 52.4031 -88.1626
rradius 64.939
rwrist 22.7827
rhand -25.9105 21.2997
rfingers 7.12502
rthumb 0.632218 -8.67911
lclavicle -3.13086e-015 -8.74653e-015
lhumerus 10.169 -58.9723 75.84
lradius 86.2062
lwrist -4.9496
lhand -14.6011 25.255
lfingers 7.12502
lthumb 11.5494 54.9167
rfemur -12.175 0.57309 17.2356
rtibia 31.2479
rfoot -18.0429 -14.9922
rtoes -13.748
lfemur -9.75503 -3.57313 -20.204
ltibia 28.3049
lfoot -18.7362 9.16408
ltoes -15.5835
1763
root -0.250642 17.8247 -1.81132 0.49557 -0.449381 1.83498
lowerback 5.38223 2.30704 -0.326333
upperback 1.69162 3.05912 0.364495
thorax -1.3113 1.52676 0.359936
lowerneck -0.968541 -5.48817 -6.26325
upperneck 5.23246 -7.35112 3.84008
head 2.24778 -3.7037 2.1321
rclavicle -5.36719e-015 1.51076e-014
rhumerus -6.8593 51.9301 -88.6524
rradius 65.4631
rwrist 22.2643
rhand -25.7977 21.434
rfingers 7.12502
rthumb 0.741124 -8.5445
lclavicle -5.36719e-015 1.51076e-014
lhumerus 8.25231 -58.306 76.9121
lradius 86.9018
lwrist -4.6583
lhand -14.4587 24.9069
lfingers 7.12502
lthumb 11.6868 54.5609
rfemur -12.1232 0.633734 17.2767
rtibia 31.1461
rfoot -18.0759 -14.6622
rtoes -12.3449
lfemur -9.71987 -3.52107 -20.1664
ltibia 28.1598
lfoot -18.682 9.20628
ltoes -15.4335
1764
root -0.251313 17.8303 -1.80786 0.584245 -0.491545 1.77183
lowerback 5.39008 2.29536 -0.165735
upperback 1.6408 3.0514 0.317643
thorax -1.35689 1.52294 0.221273
lowerneck -1.0339 -5.47897 -6.21509
upperneck 5.28802 -7.33813 3.85075
head 2.27548 -3.69573 2.12532
rclavicle -1.05356e-014 2.78299e-015
rhumerus -7.8133 51.3062 -89.0343
rradius 66.0267
rwrist 21.6837
rhand -25.5837 21.5516
rfingers 7.12502
rthumb 0.947848 -8.42601
lclavicle -1.05356e-014 2.78299e-015
lhumerus 6.37852 -57.6983 77.9343
lradius 87.4724
lwrist -4.31397
lhand -14.7572 24.5367
lfingers 7.12502
lthumb 11.3989 54.2068
rfemur -12.1287 0.685984 17.351
rtibia 31.0091
rfoot -18.1144 -14.6326
rtoes -12.0448
lfemur -9.72511 -3.49338 -20.0898
ltibia 28.0131
lfoot -18.6008 9.26759
ltoes -15.5724
1765
root -0.25112 17.835 -1.80523 0.657293 -0.546268 1.83648
lowerback 5.33912 2.30349 -0.324486
upperback 1.64887 3.05487 0.376643
thorax -1.33173 1.52471 0.372361
lowerneck -1.06092 -5.48519 -6.25775
upperneck 5.21979 -7.33904 3.79169
head 2.25688 -3.69759 2.11321
rclavicle -4.6118e-014 4.37326e-015
rhumerus -8.63177 50.7184 -89.0307
rradius 66.6694
rwrist 21.1309
rhand -25.3084 21.8955
rfingers 7.12502
rthumb 1.21374 -8.08078
lclavicle -4.6118e-014 4.37326e-015
lhumerus 4.47609 -56.968 79.1629
lradius 87.9826
lwrist -4.17932
lhand -15.1422 24.263
lfingers 7.12502
lthumb 11.0276 53.9533
rfemur -12.1739 0.766472 17.2684
rtibia 30.8333
rfoot -18.0265 -14.8538
rtoes -13.0954
lfemur -9.71043 -3.49147 -20.1627
ltibia 27.8765
lfoot -18.5534 9.31919
ltoes -15.5307
1766
root -0.251844 17.8375 -1.80178 0.748624 -0.611827 1.8364
lowerback 5.22106 2.31015 -0.410421
upperback 1.67573 3.06055 0.436184
thorax -1.24619 1.52742 0.486736
lowerneck -1.07045 -5.49079 -6.27645
upperneck 5.09339 -7.34086 3.7511
head 2.21568 -3.69882 2.1039
rclavicle -2.56432e-014 -9.54166e-015
rhumerus -9.51426 50.0643 -89.0941
rradius 67.354
rwrist 20.5402
rhand -25.134 22.3877
rfingers 7.12502
rthumb 1.38214 -7.58759
lclavicle -2.56432e-014 -9.54166e-015
lhumerus 2.58782 -56.1684 80.3228
lradius 88.6537
lwrist -4.17774
lhand -15.1337 24.6479
lfingers 7.12502
lthumb 11.0358 54.3378
rfemur -12.2006 0.851683 17.2694
rtibia 30.6326
rfoot -17.8787 -15.0176
rtoes -13.9122
lfemur -9.7109 -3.44057 -20.1512
ltibia 27.7364
lfoot -18.5147 9.30786
ltoes -15.4379
1767
root -0.250949 17.8412 -1.79602 0.795464 -0.651921 1.83543
lowerback 5.20902 2.28469 -0.324682
upperback 1.65846 3.0303 0.385751
thorax -1.2497 1.5124 0.389316
lowerneck -1.01773 -5.46654 -6.1432
upperneck 4.98119 -7.30846 3.65797
head 2.1561 -3.68184 2.05301
rclavicle -1.07841e-014 -7.55382e-015
rhumerus -10.6502 49.382 -89.5141
rradius 67.99
rwrist 20.1828
rhand -25.1473 22.1263
rfingers 7.12502
rthumb 1.36929 -7.84908
lclavicle -1.07841e-014 -7.55382e-015
lhumerus 0.631441 -55.4422 81.3328
lradius 89.3378
lwrist -3.75878
lhand -15.4227 25.0235
lfingers 7.12502
lthumb 10.757 54.728
rfemur -12.1416 0.843403 17.2666
rtibia 30.4496
rfoot -17.7655 -15.0037
rtoes -13.9108
lfemur -9.63685 -3.45149 -20.154
ltibia 27.5536
lfoot -18.4532 9.33561
ltoes -15.5374
